<svg width="185" height="368" viewBox="0 0 185 368" fill="none" xmlns="http://www.w3.org/2000/svg">
<path d="M117.48 221.285C119.629 210.25 113.672 201.705 99.6094 195.65L75.5859 185.689C41.8945 170.553 25.8789 149.947 27.5391 123.873C28.2227 111.959 32.3242 101.363 39.8438 92.0859C47.3633 82.7109 57.7637 75.4355 71.0449 70.2598C84.3262 65.084 98.8281 62.5938 114.551 62.7891C135.645 63.1797 152.588 69.332 165.381 81.2461C178.271 93.1602 184.619 109.127 184.424 129.146H134.619C134.912 120.943 133.154 114.4 129.346 109.518C125.635 104.537 119.482 101.949 110.889 101.754C102.49 101.559 95.0684 103.512 88.623 107.613C82.1777 111.715 78.3691 117.232 77.1973 124.166C75.3418 133.932 82.5684 141.939 98.877 148.189C115.283 154.439 127.197 159.811 134.619 164.303C157.959 178.268 168.896 197.115 167.432 220.846C166.65 233.15 162.695 243.941 155.566 253.219C148.438 262.496 138.525 269.674 125.83 274.752C113.232 279.83 99.0723 282.271 83.3496 282.076C71.8262 281.881 61.1328 280.074 51.2695 276.656C41.4062 273.238 32.959 268.258 25.9277 261.715C11.6699 248.531 4.83398 231.197 5.41992 209.713L55.6641 209.859C55.0781 220.797 57.1777 229.098 61.9629 234.762C66.748 240.328 74.8047 243.111 86.1328 243.111C94.5312 243.111 101.514 241.207 107.08 237.398C112.744 233.492 116.211 228.121 117.48 221.285Z" fill="white"/>
<mask id="mask0_4_11" style="mask-type:alpha" maskUnits="userSpaceOnUse" x="4" y="62" width="181" height="221">
<path d="M117.48 221.648C119.629 210.613 113.672 202.068 99.6094 196.013L75.5859 186.052C41.8945 170.916 25.8789 150.31 27.5391 124.236C28.2227 112.322 32.3242 101.726 39.8438 92.4489C47.3633 83.0739 57.7637 75.7985 71.0449 70.6227C84.3262 65.4469 98.8281 62.9567 114.551 63.152C135.645 63.5426 152.588 69.6949 165.381 81.609C178.271 93.5231 184.619 109.49 184.424 129.509H134.619C134.912 121.306 133.154 114.763 129.346 109.88C125.635 104.9 119.482 102.312 110.889 102.117C102.49 101.922 95.0684 103.875 88.623 107.976C82.1777 112.078 78.3691 117.595 77.1973 124.529C75.3418 134.295 82.5684 142.302 98.877 148.552C115.283 154.802 127.197 160.173 134.619 164.666C157.959 178.63 168.896 197.478 167.432 221.209C166.65 233.513 162.695 244.304 155.566 253.582C148.438 262.859 138.525 270.037 125.83 275.115C113.232 280.193 99.0723 282.634 83.3496 282.439C71.8262 282.244 61.1328 280.437 51.2695 277.019C41.4062 273.601 32.959 268.621 25.9277 262.078C11.6699 248.894 4.83398 231.56 5.41992 210.076L55.6641 210.222C55.0781 221.16 57.1777 229.461 61.9629 235.125C66.748 240.691 74.8047 243.474 86.1328 243.474C94.5312 243.474 101.514 241.57 107.08 237.761C112.744 233.855 116.211 228.484 117.48 221.648Z" fill="white"/>
</mask>
<g mask="url(#mask0_4_11)">
<path d="M94.0309 178.129C35.5228 163.115 32.9266 101.67 38.9421 72.8246L-32.2935 314.711L157.193 287.082C160.517 257.02 152.539 193.142 94.0309 178.129Z" fill="#1E8BA8" stroke="black"/>
</g>
</svg>
