<svg width="86" height="85" viewBox="0 0 86 85" fill="none" xmlns="http://www.w3.org/2000/svg" class="mx-auto h-12 md:h-16 xl:h-auto"><path d="M43.082 49.0717C46.7495 49.0717 49.7227 46.0985 49.7227 42.431C49.7227 38.7635 46.7495 35.7904 43.082 35.7904C39.4145 35.7904 36.4414 38.7635 36.4414 42.431C36.4414 46.0985 39.4145 49.0717 43.082 49.0717Z" fill="#00D8FF"></path><path d="M43.082 57.656C35.1004 57.8491 27.1387 56.7732 19.4945 54.4685C15.9634 53.3491 12.6699 51.5858 9.78063 49.2676C8.6781 48.4756 7.75994 47.4545 7.08916 46.2744C6.41838 45.0942 6.01085 43.7829 5.89453 42.4304C5.89453 38.0396 10.7183 33.7365 18.7986 30.9209C26.6471 28.426 34.8475 27.2168 43.082 27.3402C51.2067 27.2267 59.2972 28.414 67.0467 30.8571C70.4475 31.9413 73.6293 33.6194 76.4445 35.8137C77.5282 36.5687 78.4326 37.5528 79.0936 38.6962C79.7546 39.8397 80.1561 41.1145 80.2695 42.4304C80.2695 46.9938 74.8773 51.6184 66.1914 54.4924C58.6953 56.722 50.9016 57.7889 43.082 57.656ZM43.082 30.5171C35.2039 30.4118 27.3592 31.5613 19.8425 33.9224C12.405 36.5176 9.07141 40.0663 9.07141 42.4224C9.07141 44.8874 12.6547 48.7629 20.5225 51.4537C27.8354 53.6473 35.4496 54.6685 43.082 54.4791C50.5631 54.6129 58.0206 53.6007 65.1953 51.4776C73.3633 48.7709 77.082 44.8901 77.082 42.4304C76.948 41.5863 76.6404 40.7792 76.1786 40.06C75.7169 39.3408 75.111 38.7252 74.3992 38.2521C71.8804 36.3055 69.0381 34.8182 66.0028 33.8587C58.5893 31.5312 50.8515 30.4031 43.082 30.5171Z" fill="#00D8FF"></path><path d="M27.9925 75.5516C26.7534 75.5801 25.5289 75.2794 24.4438 74.6804C20.64 72.4863 19.3225 66.1591 20.9189 57.7521C22.6791 49.7066 25.7289 41.9987 29.9502 34.927C33.9099 27.8324 38.9792 21.417 44.966 15.9241C47.604 13.5194 50.6473 11.6012 53.9547 10.2584C55.151 9.69772 56.4559 9.4071 57.7771 9.4071C59.0982 9.4071 60.4031 9.69772 61.5994 10.2584C65.5546 12.5374 66.8641 19.518 65.018 28.4776C63.2035 36.0866 60.2329 43.3723 56.2099 50.0809C52.3895 57.0917 47.4798 63.4511 41.6642 68.9216C38.9304 71.4206 35.7576 73.392 32.3063 74.7362C30.9245 75.249 29.4661 75.5247 27.9925 75.5516ZM32.7021 36.5048C28.6754 43.2764 25.7524 50.6459 24.0427 58.3365C22.5738 66.0795 23.9842 70.7359 26.0349 71.9206C28.1599 73.1504 33.3183 71.9843 39.5817 66.5124C45.1334 61.2715 49.8195 55.1841 53.466 48.4765C57.32 42.063 60.1695 35.0973 61.9155 27.8215C63.6527 19.3879 62.1519 14.2241 60.0216 12.9969C59.2231 12.691 58.3699 12.5541 57.5159 12.5948C56.6618 12.6355 55.8254 12.8529 55.0597 13.2334C52.1157 14.4482 49.4092 16.1728 47.0644 18.328C41.3446 23.5895 36.5023 29.7312 32.7206 36.5207L32.7021 36.5048Z" fill="#00D8FF"></path><path d="M58.1635 75.5862C54.5643 75.5862 49.9929 73.4081 45.2329 69.3148C39.1413 63.772 33.9862 57.2804 29.9674 50.0916C25.799 43.1172 22.7734 35.5208 21.0052 27.5905C20.2384 24.1015 20.0963 20.5041 20.5855 16.9655C20.6986 15.6528 21.0983 14.3809 21.7565 13.2395C22.4146 12.098 23.3151 11.1149 24.3946 10.3594C28.3444 8.07235 35.0461 10.4231 41.886 16.4953C47.5719 21.8667 52.4005 28.0784 56.2032 34.9138C60.369 41.7253 63.4263 49.1553 65.261 56.9261C66.0608 60.5431 66.1842 64.277 65.6249 67.9389C65.4918 69.2894 65.0683 70.5951 64.3833 71.7665C63.6983 72.9379 62.7681 73.9474 61.6565 74.7256C60.5891 75.3172 59.3835 75.6143 58.1635 75.5862ZM32.7166 48.4925C36.572 55.3627 41.4963 61.5755 47.3047 66.8977C53.2786 72.0375 58.0174 73.1425 60.0547 71.9445C62.1797 70.7094 63.7469 65.6678 62.1319 57.5105C60.3625 50.0914 57.4301 42.9991 53.4433 36.4969C49.8144 29.9549 45.2056 24.0068 39.7769 18.8594C33.3382 13.1431 28.116 11.8655 25.9883 13.098C25.3252 13.6369 24.781 14.3074 24.3901 15.0673C23.9992 15.8271 23.7701 16.6598 23.7172 17.5127C23.2949 20.6685 23.4325 23.8741 24.1236 26.9822C25.8244 34.5662 28.7262 41.8296 32.7193 48.4978L32.7166 48.4925Z" fill="#00D8FF"></path></svg>